<?xml version="1.0" standalone="no"?>
<!DOCTYPE svg PUBLIC "-//W3C//DTD SVG 20010904//EN"
 "http://www.w3.org/TR/2001/REC-SVG-20010904/DTD/svg10.dtd">
<svg version="1.0" xmlns="http://www.w3.org/2000/svg"
 width="500.000000pt" height="500.000000pt" viewBox="0 0 500.000000 500.000000"
 preserveAspectRatio="xMidYMid meet">

<g transform="translate(0.000000,500.000000) scale(0.100000,-0.100000)"
fill="#000000" stroke="none">
<path d="M2581 4013 c-13 -3 -25 -13 -28 -23 -3 -10 -15 -21 -27 -24 -13 -3
-57 -28 -99 -56 -152 -99 -227 -121 -343 -101 -66 12 -69 12 -87 -11 -89 -111
-68 -233 44 -245 51 -6 141 16 192 47 42 26 93 26 107 0 6 -10 13 -39 16 -64
8 -57 -28 -126 -102 -196 l-53 -50 35 0 c47 0 143 -33 204 -71 27 -17 75 -58
105 -92 81 -91 127 -193 174 -385 22 -89 51 -187 65 -217 14 -30 23 -55 21
-55 -3 0 -17 19 -31 43 -15 23 -28 44 -30 46 -1 2 -17 -13 -35 -34 l-32 -37
-13 24 c-15 27 -35 109 -64 262 -37 190 -88 255 -225 286 -44 10 -145 1 -191
-17 -17 -6 -17 -5 -1 17 24 35 21 74 -9 109 -34 41 -83 43 -121 5 -22 -22 -25
-32 -21 -76 l5 -50 -25 25 c-18 18 -26 39 -30 77 -5 50 -5 52 -18 29 -7 -13
-13 -48 -14 -77 0 -48 4 -58 34 -88 29 -29 41 -34 83 -34 27 0 72 7 101 15 47
14 54 14 102 -4 110 -42 156 -103 148 -196 -10 -111 -78 -191 -280 -330 -333
-228 -518 -385 -518 -439 0 -26 2 -28 28 -21 205 52 344 17 572 -145 80 -57
190 -108 283 -132 140 -35 295 -15 405 52 l33 20 -40 56 c-68 95 -74 186 -17
263 40 53 57 62 102 49 21 -6 86 -11 144 -12 93 -1 111 2 155 24 37 18 55 35
69 64 18 36 18 44 6 100 -20 87 -18 130 8 165 26 35 28 66 6 75 -22 8 -9 23
26 31 40 9 45 20 30 65 -21 62 -8 88 58 116 90 39 102 47 124 77 28 40 18 66
-56 147 -97 106 -111 140 -111 283 0 64 -2 117 -4 117 -2 0 -29 -7 -61 -15
-71 -18 -163 -23 -247 -12 l-63 8 20 -34 c11 -19 32 -63 46 -98 28 -71 88
-288 81 -295 -2 -2 -15 40 -30 94 -78 298 -188 461 -367 544 -47 22 -92 43
-100 47 -33 17 -95 160 -107 246 l-6 44 39 -6 c64 -9 102 -33 156 -94 74 -86
122 -106 281 -118 187 -14 209 -31 333 -246 28 -48 29 -49 32 -22 7 63 -59
218 -117 273 -57 54 -139 83 -282 99 -67 7 -149 44 -241 109 -102 71 -144 84
-227 69z m-460 -264 l24 -21 -25 16 c-13 9 -38 16 -55 16 -17 0 -42 -7 -55
-16 l-25 -16 24 21 c13 12 37 21 56 21 19 0 43 -9 56 -21z m-11 -29 c11 -11
20 -30 20 -42 0 -26 -37 -68 -60 -68 -28 0 -70 39 -70 66 0 31 33 64 65 64 14
0 34 -9 45 -20z m54 -562 c21 -30 20 -50 -5 -82 -23 -29 -54 -33 -87 -10 -27
18 -30 69 -5 96 23 26 78 24 97 -4z m1085 -258 c11 -24 11 -24 -3 -6 -9 11
-16 24 -16 30 0 12 5 7 19 -24z m41 -55 c13 -14 21 -25 18 -25 -2 0 -15 11
-28 25 -13 14 -21 25 -18 25 2 0 15 -11 28 -25z"/>
<path d="M1730 3771 c-16 -31 4 -63 37 -59 34 4 52 32 37 56 -16 26 -60 28
-74 3z"/>
<path d="M1544 3615 c-7 -18 3 -35 21 -35 15 0 24 19 18 38 -6 17 -32 15 -39
-3z"/>
<path d="M1796 3578 c-22 -31 -20 -55 7 -78 21 -18 22 -25 16 -78 -4 -31 -8
-66 -8 -78 -1 -12 -12 -26 -26 -32 -14 -6 -25 -18 -25 -25 0 -27 -144 -38
-154 -12 -3 8 -16 15 -30 15 -29 0 -44 -33 -26 -55 14 -17 46 -20 54 -6 3 5
35 12 71 16 62 6 66 5 93 -22 l28 -28 -9 -94 c-9 -88 -12 -96 -43 -128 -28
-28 -40 -33 -79 -33 -28 0 -52 6 -61 15 -19 19 -38 19 -54 0 -26 -31 13 -66
53 -47 12 6 43 13 69 15 39 4 48 1 53 -13 3 -10 19 -23 35 -30 22 -9 33 -23
40 -49 5 -20 25 -91 43 -158 33 -119 33 -123 15 -139 -22 -21 -23 -42 -2 -72
33 -47 104 -17 104 45 0 26 15 44 107 127 70 61 111 92 117 86 6 -6 27 -10 47
-10 90 0 126 93 60 152 -27 24 -39 29 -64 24 -17 -4 -43 -17 -57 -30 l-25 -24
-149 47 c-93 29 -151 52 -154 61 -2 8 -13 25 -24 37 -18 19 -19 30 -13 116 7
89 9 96 36 116 17 13 29 31 29 44 0 19 22 33 136 90 82 41 139 64 143 58 23
-37 100 -27 120 15 16 35 14 47 -10 78 -26 33 -73 35 -105 5 l-23 -22 -111 28
c-76 19 -113 33 -117 44 -19 53 -79 69 -107 29z m194 -83 c136 -34 140 -35
140 -53 0 -12 -39 -37 -133 -84 -115 -57 -135 -64 -151 -53 -15 12 -17 23 -11
93 7 71 10 81 31 91 13 6 24 15 24 21 0 6 8 9 18 6 9 -3 46 -12 82 -21z m7
-636 l141 -42 10 -39 10 -38 -104 -92 c-57 -51 -109 -93 -114 -92 -6 1 -18 2
-28 3 -15 1 -27 31 -61 160 -37 136 -41 162 -30 175 8 8 19 14 25 12 5 -2 74
-23 151 -47z"/>
<path d="M1637 3462 c-22 -24 -21 -55 1 -75 39 -36 92 -10 92 43 0 47 -61 68
-93 32z"/>
<path d="M1420 3370 c0 -16 5 -21 23 -18 12 2 22 10 22 18 0 8 -10 16 -22 18
-18 3 -23 -2 -23 -18z"/>
<path d="M1367 3113 c-15 -15 -7 -63 13 -73 42 -22 82 34 48 68 -13 13 -50 16
-61 5z"/>
<path d="M1435 2760 c-9 -15 4 -30 26 -30 12 0 19 7 19 20 0 21 -33 29 -45 10z"/>
<path d="M1665 2670 c-15 -17 -16 -24 -7 -45 12 -27 32 -31 63 -15 23 13 25
43 3 64 -21 21 -37 20 -59 -4z"/>
<path d="M1260 1335 l0 -185 119 0 c66 0 132 5 147 10 49 19 53 35 54 178 0
128 -1 134 -25 157 -23 24 -29 25 -160 25 l-135 0 0 -185z m228 103 c8 -8 12
-46 12 -103 0 -57 -4 -95 -12 -103 -7 -7 -40 -12 -80 -12 l-68 0 0 115 0 115
68 0 c40 0 73 -5 80 -12z"/>
<path d="M1640 1335 l0 -185 150 0 150 0 0 35 0 35 -110 0 -110 0 0 40 0 40
80 0 80 0 0 35 0 35 -80 0 -80 0 0 40 0 40 110 0 110 0 0 35 0 35 -150 0 -150
0 0 -185z"/>
<path d="M1980 1335 l0 -185 150 0 150 0 0 35 0 35 -110 0 -110 0 0 40 0 40
85 0 85 0 0 35 0 35 -85 0 -85 0 0 40 0 40 110 0 110 0 0 35 0 35 -150 0 -150
0 0 -185z"/>
<path d="M2330 1335 l0 -185 40 0 40 0 0 55 0 55 104 0 c136 0 136 0 136 130
0 134 5 130 -176 130 l-144 0 0 -185z m235 55 l0 -55 -77 -3 -78 -3 0 61 0 61
78 -3 77 -3 0 -55z"/>
<path d="M2710 1335 l0 -185 150 0 150 0 0 35 0 35 -110 0 -110 0 0 150 0 150
-40 0 -40 0 0 -185z"/>
<path d="M3056 1504 c-13 -13 -16 -43 -16 -169 0 -192 -6 -185 160 -185 166 0
160 -7 160 185 0 126 -3 156 -16 169 -23 23 -265 23 -288 0z m222 -166 l-3
-113 -75 0 -75 0 -3 113 -3 112 81 0 81 0 -3 -112z"/>
<path d="M3437 1502 c-25 -27 -25 -313 0 -333 22 -19 276 -20 295 -1 8 8 14
46 17 97 l3 85 -81 0 -81 0 0 -30 c0 -28 3 -30 36 -30 34 0 35 -1 32 -32 l-3
-33 -75 0 -75 0 0 110 0 110 78 3 c72 3 77 1 77 -18 0 -17 6 -20 46 -20 l47 0
-6 40 c-9 68 -13 70 -162 70 -115 0 -134 -2 -148 -18z"/>
<path d="M896 974 c-17 -55 -14 -86 5 -51 6 9 16 17 24 17 8 0 18 -8 24 -17 5
-10 12 -15 16 -11 10 10 -27 118 -40 118 -6 0 -19 -25 -29 -56z m37 6 c3 -12
0 -20 -8 -20 -8 0 -11 8 -8 20 3 11 7 20 8 20 1 0 5 -9 8 -20z"/>
<path d="M1020 1020 c0 -5 5 -10 10 -10 6 0 10 -18 10 -40 0 -22 -4 -40 -10
-40 -5 0 -10 -4 -10 -10 0 -5 11 -10 25 -10 14 0 25 5 25 10 0 6 -4 10 -10 10
-5 0 -10 18 -10 40 0 22 5 40 10 40 6 0 10 5 10 10 0 6 -11 10 -25 10 -14 0
-25 -4 -25 -10z"/>
<path d="M1250 970 c0 -59 0 -60 28 -60 37 0 52 17 52 60 0 43 -15 60 -52 60
-28 0 -28 -1 -28 -60z m58 -3 c3 -32 0 -37 -17 -37 -18 0 -21 6 -21 41 0 33 3
40 18 37 12 -2 18 -14 20 -41z"/>
<path d="M1370 971 c0 -61 16 -85 22 -33 l4 27 14 -27 c7 -16 19 -28 27 -28
12 0 11 4 -1 22 -14 20 -14 24 1 41 23 25 6 51 -36 55 l-31 3 0 -60z m60 24
c0 -8 -9 -15 -20 -15 -11 0 -20 7 -20 15 0 8 9 15 20 15 11 0 20 -7 20 -15z"/>
<path d="M1500 1020 c0 -5 5 -10 10 -10 6 0 10 -18 10 -40 0 -22 -4 -40 -10
-40 -5 0 -10 -4 -10 -10 0 -5 14 -10 32 -10 25 0 29 3 20 12 -14 14 -16 88 -2
88 6 0 10 5 10 10 0 6 -13 10 -30 10 -16 0 -30 -4 -30 -10z"/>
<path d="M1606 1008 c35 -112 47 -120 68 -47 18 60 19 69 8 69 -4 0 -14 -21
-21 -47 l-13 -48 -14 48 c-8 26 -19 47 -25 47 -6 0 -7 -9 -3 -22z"/>
<path d="M1730 970 l0 -60 41 0 c24 0 38 4 34 10 -3 6 -17 10 -31 10 -15 0
-24 6 -24 15 0 8 9 15 20 15 11 0 20 5 20 10 0 6 -9 10 -20 10 -11 0 -20 7
-20 15 0 9 9 15 25 15 14 0 25 5 25 10 0 6 -16 10 -35 10 l-35 0 0 -60z"/>
<path d="M1850 970 c0 -64 19 -85 21 -22 l1 37 16 -37 c26 -58 42 -49 42 22 0
64 -19 85 -21 23 l-1 -38 -15 38 c-24 58 -43 48 -43 -23z"/>
<path d="M2116 1018 c-2 -7 -11 -34 -20 -60 -8 -27 -11 -48 -5 -48 5 0 12 7
15 15 4 8 14 15 24 15 10 0 20 -7 24 -15 3 -8 10 -15 15 -15 5 0 1 26 -9 57
-17 56 -36 78 -44 51z m24 -43 c0 -8 -4 -15 -10 -15 -5 0 -10 7 -10 15 0 8 5
15 10 15 6 0 10 -7 10 -15z"/>
<path d="M2210 970 c0 -64 19 -85 21 -22 l1 37 16 -37 c26 -58 42 -49 42 22 0
64 -19 85 -21 23 l-1 -38 -15 38 c-24 58 -43 48 -43 -23z"/>
<path d="M2341 1016 c-17 -20 -17 -72 -1 -91 19 -23 53 -14 68 18 11 22 11 32
0 55 -15 31 -49 40 -67 18z m54 -26 c9 -29 -4 -60 -25 -60 -10 0 -22 9 -25 20
-9 29 4 60 25 60 10 0 22 -9 25 -20z"/>
<path d="M2457 1023 c-11 -10 -8 -113 3 -113 6 0 10 15 10 33 0 24 3 28 10 17
9 -13 11 -13 20 0 7 11 10 7 10 -17 0 -18 5 -33 10 -33 6 0 10 27 10 60 0 62
-13 78 -30 38 l-9 -23 -7 23 c-6 22 -15 27 -27 15z"/>
<path d="M2586 979 c-19 -62 -19 -69 -6 -69 6 0 10 7 10 15 0 21 37 19 49 -2
5 -10 12 -15 15 -12 9 8 -29 112 -42 117 -6 2 -18 -20 -26 -49z m30 -16 c-10
-10 -19 5 -10 18 6 11 8 11 12 0 2 -7 1 -15 -2 -18z"/>
<path d="M2698 1024 c-5 -4 -8 -31 -8 -61 l0 -53 40 0 c22 0 40 5 40 10 0 6
-13 10 -29 10 -29 0 -30 2 -33 51 -2 28 -6 47 -10 43z"/>
<path d="M2810 1025 c0 -2 8 -20 17 -40 14 -29 15 -40 5 -56 -11 -17 -9 -19
18 -19 29 0 41 15 19 22 -14 5 7 78 22 78 5 0 9 5 9 10 0 6 -9 10 -20 10 -15
0 -20 -7 -20 -26 0 -15 -4 -23 -11 -18 -6 3 -9 15 -6 25 4 14 0 19 -14 19 -10
0 -19 -2 -19 -5z"/>
<path d="M3060 970 c0 -60 0 -60 30 -60 32 0 50 22 50 64 0 31 -24 56 -56 56
-23 0 -24 -3 -24 -60z m55 0 c0 -25 -5 -36 -17 -38 -15 -3 -18 4 -18 38 0 34
3 41 18 38 12 -2 17 -13 17 -38z"/>
<path d="M3180 970 l0 -60 35 0 c19 0 35 5 35 10 0 6 -11 10 -25 10 -16 0 -25
6 -25 15 0 8 9 15 20 15 11 0 20 5 20 10 0 6 -9 10 -20 10 -11 0 -20 7 -20 15
0 9 9 15 25 15 14 0 25 5 25 10 0 6 -16 10 -35 10 l-35 0 0 -60z"/>
<path d="M3290 1010 c0 -11 5 -20 10 -20 6 0 10 5 10 10 0 6 5 10 10 10 6 0
10 -18 10 -40 0 -22 -4 -40 -10 -40 -5 0 -10 -4 -10 -10 0 -5 11 -10 25 -10
14 0 25 5 25 10 0 6 -4 10 -10 10 -5 0 -10 18 -10 40 0 22 5 40 10 40 6 0 10
-4 10 -10 0 -5 5 -10 10 -10 6 0 10 9 10 20 0 17 -7 20 -45 20 -38 0 -45 -3
-45 -20z"/>
<path d="M3420 970 l0 -60 35 0 c19 0 35 5 35 10 0 6 -11 10 -25 10 -16 0 -25
6 -25 15 0 8 9 15 20 15 11 0 20 5 20 10 0 6 -9 10 -20 10 -11 0 -20 7 -20 15
0 9 9 15 25 15 14 0 25 5 25 10 0 6 -16 10 -35 10 l-35 0 0 -60z"/>
<path d="M3540 1010 c-23 -44 -4 -100 35 -100 14 0 29 8 35 20 7 14 7 20 0 20
-5 0 -10 -5 -10 -11 0 -6 -10 -9 -22 -7 -18 2 -24 11 -26 36 -4 38 23 56 43
29 13 -19 25 -12 25 13 0 25 -66 26 -80 0z"/>
<path d="M3653 1015 c-3 -9 -2 -19 2 -23 4 -4 10 -1 12 6 10 26 23 10 23 -28
0 -22 -4 -40 -10 -40 -5 0 -10 -4 -10 -10 0 -5 14 -10 32 -10 25 0 29 3 20 12
-7 7 -12 30 -11 52 0 23 3 35 6 29 8 -20 23 -15 23 7 0 17 -7 20 -40 20 -27 0
-43 -5 -47 -15z"/>
<path d="M3790 1020 c0 -5 5 -10 10 -10 6 0 10 -18 10 -40 0 -22 -4 -40 -10
-40 -5 0 -10 -4 -10 -10 0 -5 14 -10 32 -10 25 0 29 3 20 12 -14 14 -16 88 -2
88 6 0 10 5 10 10 0 6 -13 10 -30 10 -16 0 -30 -4 -30 -10z"/>
<path d="M3913 1023 c-18 -7 -27 -67 -14 -92 13 -23 50 -28 69 -9 16 16 16 80
0 96 -12 12 -33 14 -55 5z m45 -56 c3 -32 0 -37 -18 -37 -25 0 -34 21 -26 56
10 40 40 27 44 -19z"/>
<path d="M4020 970 c0 -64 19 -85 21 -22 l1 37 15 -37 c24 -57 43 -49 43 16 0
30 -4 58 -10 61 -6 4 -10 -9 -10 -32 l-1 -38 -20 38 c-11 20 -24 37 -29 37 -6
0 -10 -27 -10 -60z"/>
<path d="M1125 950 c3 -5 21 -10 40 -10 19 0 37 5 40 10 4 6 -12 10 -40 10
-28 0 -44 -4 -40 -10z"/>
</g>
</svg>
